<svg width="32" height="32" viewBox="0 0 32 32" fill="none" xmlns="http://www.w3.org/2000/svg">
<g id="mdi:send-circle">
<path id="Vector" d="M16.0001 2.66675C17.751 2.66675 19.4849 3.01162 21.1025 3.68169C22.7202 4.35175 24.1901 5.33388 25.4282 6.57199C26.6663 7.81011 27.6484 9.27996 28.3185 10.8976C28.9885 12.5153 29.3334 14.2491 29.3334 16.0001C29.3334 19.5363 27.9287 22.9277 25.4282 25.4282C22.9277 27.9287 19.5363 29.3334 16.0001 29.3334C14.2491 29.3334 12.5153 28.9885 10.8976 28.3185C9.27996 27.6484 7.81011 26.6663 6.57199 25.4282C4.07151 22.9277 2.66675 19.5363 2.66675 16.0001C2.66675 12.4639 4.07151 9.07248 6.57199 6.57199C9.07248 4.07151 12.4639 2.66675 16.0001 2.66675ZM11.7124 10.7287C11.2175 10.5164 10.6667 10.8794 10.6667 11.4179V14.0766C10.6667 14.4526 10.9451 14.7705 11.3178 14.82L14.5991 15.2566C15.4673 15.3721 15.4673 16.628 14.5991 16.7435L11.3178 17.1801C10.9451 17.2297 10.6667 17.5476 10.6667 17.9236V20.5822C10.6667 21.1208 11.2175 21.4838 11.7124 21.2715L22.3934 16.6893C22.9992 16.4295 22.9992 15.5707 22.3934 15.3108L11.7124 10.7287Z" fill="black"/>
</g>
</svg>
